<svg xmlns="http://www.w3.org/2000/svg" viewBox="0 0 1920 1080">
  <!-- Refined Gradient Background -->
  <defs>
    <linearGradient id="bgGradient" x1="0%" y1="0%" x2="100%" y2="100%">
      <stop offset="0%" stop-color="#1a365d" />
      <stop offset="50%" stop-color="#2a4365" />
      <stop offset="100%" stop-color="#0bc5ea" />
    </linearGradient>
    
    <!-- Enhanced 3D Shadow -->
    <filter id="enhancedShadow" x="-50%" y="-50%" width="200%" height="200%">
      <feGaussianBlur in="SourceAlpha" stdDeviation="15" />
      <feOffset dx="8" dy="8" result="offsetblur" />
      <feComponentTransfer>
        <feFuncA type="linear" slope="0.25" />
      </feComponentTransfer>
      <feMerge>
        <feMergeNode />
        <feMergeNode in="SourceGraphic" />
      </feMerge>
    </filter>
    
    <!-- Glass Effect -->
    <filter id="glassEffect" x="-50%" y="-50%" width="200%" height="200%">
      <feGaussianBlur in="SourceAlpha" stdDeviation="10" />
      <feOffset dx="0" dy="0" result="offsetblur" />
      <feComponentTransfer>
        <feFuncA type="linear" slope="0.1" />
      </feComponentTransfer>
      <feMerge>
        <feMergeNode />
        <feMergeNode in="SourceGraphic" />
      </feMerge>
    </filter>
  </defs>
  
  <!-- Main Background -->
  <rect width="100%" height="1080" fill="url(#bgGradient)" />
  
  <!-- Upper Half Design: Intellectual Chat Interface (0-540px) -->
  
  <!-- User Message - Sophisticated Design -->
  <rect x="980" y="100" width="520" height="140" rx="12" ry="12" fill="rgba(255, 255, 255, 0.85)" filter="url(#enhancedShadow)" />
  <!-- Message text lines -->
  <rect x="1020" y="130" width="420" height="8" rx="4" ry="4" fill="#555555" opacity="0.6" />
  <rect x="1020" y="155" width="380" height="8" rx="4" ry="4" fill="#555555" opacity="0.6" />
  <rect x="1020" y="180" width="340" height="8" rx="4" ry="4" fill="#555555" opacity="0.6" />
  <!-- User indicator -->
  <circle cx="1460" cy="100" r="20" fill="#e2e8f0" stroke="#a0aec0" stroke-width="2" />
  
  <!-- Assistant Message - Knowledge Graph Style -->
  <rect x="420" y="280" width="600" height="220" rx="12" ry="12" fill="rgba(237, 242, 247, 0.9)" filter="url(#enhancedShadow)" />
  
  <!-- Knowledge Graph Elements -->
  <circle cx="480" cy="330" r="15" fill="#0bc5ea" opacity="0.9" />
  <circle cx="560" cy="370" r="15" fill="#0bc5ea" opacity="0.9" />
  <circle cx="640" cy="330" r="15" fill="#0bc5ea" opacity="0.9" />
  <circle cx="720" cy="390" r="15" fill="#0bc5ea" opacity="0.9" />
  <circle cx="800" cy="350" r="15" fill="#0bc5ea" opacity="0.9" />
  
  <!-- Connection Lines -->
  <line x1="480" y1="330" x2="560" y2="370" stroke="#0bc5ea" stroke-width="2" opacity="0.6" />
  <line x1="560" y1="370" x2="640" y2="330" stroke="#0bc5ea" stroke-width="2" opacity="0.6" />
  <line x1="640" y1="330" x2="720" y2="390" stroke="#0bc5ea" stroke-width="2" opacity="0.6" />
  <line x1="720" y1="390" x2="800" y2="350" stroke="#0bc5ea" stroke-width="2" opacity="0.6" />
  <line x1="480" y1="330" x2="640" y2="330" stroke="#0bc5ea" stroke-width="2" opacity="0.6" />
  <line x1="560" y1="370" x2="720" y2="390" stroke="#0bc5ea" stroke-width="2" opacity="0.6" />
  
  <!-- Text Elements -->
  <rect x="470" y="420" width="500" height="8" rx="4" ry="4" fill="#555555" opacity="0.6" />
  <rect x="470" y="440" width="460" height="8" rx="4" ry="4" fill="#555555" opacity="0.6" />
  <rect x="470" y="460" width="480" height="8" rx="4" ry="4" fill="#555555" opacity="0.6" />
  
  <!-- AI Assistant Icon -->
  <circle cx="420" cy="340" r="30" fill="#0bc5ea" filter="url(#glassEffect)" />
  <path d="M410 340 L430 340 M420 330 L420 350" stroke="white" stroke-width="2" />
  
  <!-- Floating Data Points -->
  <circle cx="950" cy="180" r="4" fill="white" opacity="0.7" />
  <circle cx="920" cy="200" r="4" fill="white" opacity="0.7" />
  <circle cx="890" cy="160" r="4" fill="white" opacity="0.7" />
  <circle cx="860" cy="190" r="4" fill="white" opacity="0.7" />
  <circle cx="830" cy="170" r="4" fill="white" opacity="0.7" />
  
  <!-- Abstract Neural Network Elements -->
  <circle cx="200" cy="150" r="6" fill="white" opacity="0.8" />
  <circle cx="250" cy="180" r="6" fill="white" opacity="0.8" />
  <circle cx="300" cy="120" r="6" fill="white" opacity="0.8" />
  <circle cx="350" cy="160" r="6" fill="white" opacity="0.8" />
  <circle cx="220" cy="220" r="6" fill="white" opacity="0.8" />
  <circle cx="270" cy="250" r="6" fill="white" opacity="0.8" />
  <circle cx="320" cy="200" r="6" fill="white" opacity="0.8" />
  
  <!-- Network Connections -->
  <line x1="200" y1="150" x2="250" y2="180" stroke="white" stroke-width="1" opacity="0.5" />
  <line x1="250" y1="180" x2="300" y2="120" stroke="white" stroke-width="1" opacity="0.5" />
  <line x1="300" y1="120" x2="350" y2="160" stroke="white" stroke-width="1" opacity="0.5" />
  <line x1="220" y1="220" x2="270" y2="250" stroke="white" stroke-width="1" opacity="0.5" />
  <line x1="270" y1="250" x2="320" y2="200" stroke="white" stroke-width="1" opacity="0.5" />
  <line x1="200" y1="150" x2="220" y2="220" stroke="white" stroke-width="1" opacity="0.5" />
  <line x1="250" y1="180" x2="270" y2="250" stroke="white" stroke-width="1" opacity="0.5" />
  <line x1="300" y1="120" x2="320" y2="200" stroke="white" stroke-width="1" opacity="0.5" />
</svg>
