<svg xmlns="http://www.w3.org/2000/svg" viewBox="0 0 1920 1080">
  <!-- Blue to Cyan Gradient Background -->
  <defs>
    <linearGradient id="bgGradient" x1="0%" y1="0%" x2="100%" y2="100%">
      <stop offset="0%" stop-color="#0078d4" />
      <stop offset="100%" stop-color="#00b7c3" />
    </linearGradient>
    
    <!-- Soft Shadow Filter -->
    <filter id="softShadow" x="-50%" y="-50%" width="200%" height="200%">
      <feGaussianBlur in="SourceAlpha" stdDeviation="15" />
      <feOffset dx="5" dy="5" result="offsetblur" />
      <feComponentTransfer>
        <feFuncA type="linear" slope="0.12" />
      </feComponentTransfer>
      <feMerge>
        <feMergeNode />
        <feMergeNode in="SourceGraphic" />
      </feMerge>
    </filter>
  </defs>
  
  <!-- Main Background -->
  <rect width="100%" height="100%" fill="url(#bgGradient)" />
  
  <!-- Upper Half Shapes Only (0-540px vertical) - Grey Shades -->
  <!-- Triangle Shape (similar to the reference) -->
  <path d="M300,300 L500,200 L450,400 Z" fill="#e0e0e0" filter="url(#softShadow)" opacity="0.9" />
  
  <!-- Pill Shape (horizontal) -->
  <rect x="800" y="250" width="300" height="100" rx="50" ry="50" fill="#d0d0d0" filter="url(#softShadow)" opacity="0.8" />
  
  <!-- Circle -->
  <circle cx="1500" cy="400" r="120" fill="#e8e8e8" filter="url(#softShadow)" opacity="0.85" />
  
  <!-- Lines representing the three horizontal lines in reference image -->
  <rect x="700" y="350" width="250" height="25" rx="12.5" ry="12.5" fill="#f0f0f0" filter="url(#softShadow)" opacity="0.9" />
  <rect x="700" y="400" width="250" height="25" rx="12.5" ry="12.5" fill="#e5e5e5" filter="url(#softShadow)" opacity="0.7" />
  <rect x="700" y="450" width="250" height="25" rx="12.5" ry="12.5" fill="#dadada" filter="url(#softShadow)" opacity="0.5" />
  
  <!-- Square with rounded corners -->
  <rect x="400" y="150" width="150" height="150" rx="20" ry="20" fill="#d8d8d8" filter="url(#softShadow)" opacity="0.8" />
  
  <!-- Small accents -->
  <circle cx="1100" cy="150" r="50" fill="#efefef" filter="url(#softShadow)" opacity="0.7" />
  <circle cx="250" cy="200" r="40" fill="#c5c5c5" filter="url(#softShadow)" opacity="0.6" />
  <circle cx="1700" cy="200" r="30" fill="#f5f5f5" filter="url(#softShadow)" opacity="0.8" />
  
  <!-- Additional accent shapes in upper half -->
  <rect x="1200" y="100" width="200" height="80" rx="40" ry="40" fill="#dddddd" filter="url(#softShadow)" opacity="0.65" />
  <path d="M100,200 L250,100 L200,300 Z" fill="#cccccc" filter="url(#softShadow)" opacity="0.6" />
</svg>
